 <svg  version="1.0" xmlns="http://www.w3.org/2000/svg"  width="300.000000pt" height="237.000000pt" viewBox="0 0 300.000000 237.000000"  preserveAspectRatio="xMidYMid meet">  <g transform="translate(0.000000,237.000000) scale(0.100000,-0.100000)" fill="#ffffff" stroke="none"> <path d="M810 2330 c-253 -35 -482 -175 -615 -375 -106 -159 -154 -306 -162 -495 -4 -104 -1 -143 17 -230 51 -251 185 -454 389 -592 120 -82 222 -122 392 -153 23 -4 30 -15 49 -76 58 -178 205 -314 395 -364 50 -13 147 -15 626 -15 532 0 570 1 643 20 187 47 341 193 399 374 22 71 22 74 22 746 0 627 -1 679 -18 735 -64 206 -198 341 -407 411 -51 17 -108 19 -865 20 -445 1 -835 -2 -865 -6z m1722 -191 c110 -46 196 -133 238 -239 21 -54 22 -62 22 -731 l1 -676 -33 -71 c-40 -87 -95 -141 -188 -185 l-67 -32 -600 0 -600 0 -57 23 c-77 31 -150 99 -187 174 -17 34 -31 69 -31 78 0 11 25 24 88 44 163 53 290 133 405 256 167 178 249 395 249 652 -1 156 -22 248 -92 393 -56 116 -137 218 -228 287 -58 44 -60 47 -34 50 15 2 260 2 544 1 509 -2 517 -2 570 -24z"/> </g> </svg> 